<?xml version="1.0" standalone="no"?>
<!DOCTYPE svg PUBLIC "-//W3C//DTD SVG 20010904//EN"
 "http://www.w3.org/TR/2001/REC-SVG-20010904/DTD/svg10.dtd">
<svg version="1.0" xmlns="http://www.w3.org/2000/svg"
 width="700.000000pt" height="700.000000pt" viewBox="0 0 700.000000 700.000000"
 preserveAspectRatio="xMidYMid meet">
<metadata>
Created by potrace 1.14, written by Peter Selinger 2001-2017
</metadata>
<g transform="translate(0.000000,700.000000) scale(0.100000,-0.100000)"
fill="#000000" stroke="none">
<path d="M3840 6830 c-106 -29 -208 -84 -273 -147 l-56 -55 -46 32 c-58 40
-100 57 -155 64 -25 3 -81 15 -125 26 -164 42 -226 42 -351 1 -140 -46 -335
-177 -455 -308 -82 -90 -190 -259 -216 -338 -19 -60 -26 -203 -12 -264 19 -86
96 -218 188 -323 l34 -39 -51 35 c-87 58 -257 103 -354 93 -76 -7 -255 -46
-309 -67 -97 -36 -215 -132 -280 -226 -89 -130 -116 -210 -124 -369 -2 -33 -8
-82 -15 -110 -11 -49 -15 -180 -6 -220 21 -95 32 -129 64 -195 24 -50 59 -98
103 -143 l65 -68 -29 -66 c-16 -37 -41 -125 -56 -197 -23 -115 -25 -146 -20
-251 3 -66 13 -145 22 -175 9 -30 18 -98 21 -150 7 -146 12 -159 97 -276 72
-98 186 -181 274 -198 131 -26 239 -27 333 -3 41 10 94 17 119 15 l45 -3 -58
-80 c-83 -116 -364 -537 -373 -560 -2 -5 -16 -28 -31 -50 -31 -46 -190 -306
-190 -311 0 -2 -19 -34 -43 -71 -24 -38 -46 -75 -50 -83 -4 -8 -15 -28 -25
-45 -10 -16 -36 -61 -57 -100 -21 -38 -58 -106 -82 -150 -68 -123 -373 -744
-373 -760 0 -2 -21 -47 -47 -102 -39 -82 -47 -108 -47 -159 -1 -52 3 -66 28
-98 34 -45 97 -75 148 -71 50 4 105 32 126 64 10 14 58 116 107 226 95 215
330 684 440 880 52 95 195 334 338 570 7 10 27 41 45 67 17 26 32 50 32 53 0
3 4 11 10 18 5 7 80 119 167 249 86 131 160 238 164 238 4 0 10 -16 14 -36 14
-79 135 -272 224 -360 50 -50 178 -126 351 -209 52 -25 111 -54 130 -64 31
-17 86 -35 145 -47 51 -11 151 -10 189 1 80 24 198 77 218 99 11 11 52 63 90
114 51 67 74 90 83 82 27 -22 147 -59 264 -80 259 -47 473 -2 678 143 120 86
181 150 225 238 92 183 112 260 111 424 0 96 -4 132 -21 178 -12 31 -20 57
-18 57 2 0 16 -4 32 -10 43 -14 157 -20 172 -8 9 8 12 6 12 -6 0 -9 6 -16 13
-17 6 0 19 -2 28 -4 51 -10 322 123 441 217 74 58 243 360 274 489 15 60 11
204 -6 263 -75 256 -131 375 -218 464 l-40 41 29 33 c70 79 135 260 146 409 9
123 -20 215 -115 360 -71 108 -129 174 -362 408 -177 179 -268 223 -404 198
-71 -12 -196 -55 -227 -78 l-26 -18 13 56 c21 89 11 198 -25 276 -67 150 -145
239 -321 368 -138 101 -211 139 -375 194 -141 48 -268 56 -385 25z m-980 -339
c0 -5 -7 -14 -15 -21 -12 -10 -18 -10 -30 0 -23 19 -18 30 15 30 17 0 30 -4
30 -9z m-119 -118 c13 -17 13 -17 -6 -3 -11 8 -22 16 -24 17 -2 2 0 3 6 3 6 0
17 -8 24 -17z m2154 -232 c7 -34 8 -77 3 -115 -9 -65 -46 -201 -54 -194 -2 3
5 34 16 69 11 35 23 96 27 135 6 71 5 76 -43 224 -3 8 5 -3 18 -25 12 -22 27
-64 33 -94z m-2654 -8 c-12 -20 -14 -14 -5 12 4 9 9 14 11 11 3 -2 0 -13 -6
-23z m-20 -64 c-6 -16 -10 -18 -10 -7 -1 22 12 55 16 42 2 -6 -1 -22 -6 -35z
m307 -9 c12 -16 22 -31 22 -34 0 -3 -22 6 -49 19 -27 14 -56 25 -65 25 -9 0
-16 5 -16 10 0 6 19 10 43 10 36 0 47 -5 65 -30z m2791 -115 c47 -16 145 -81
180 -118 22 -25 19 -24 -65 12 -99 43 -203 71 -279 77 -27 1 -52 4 -55 4 -3 1
19 9 48 18 72 23 122 25 171 7z m7 -296 c4 -35 -4 -49 -50 -82 l-30 -22 21 35
c11 19 26 52 33 73 14 43 21 42 26 -4z m-2100 -235 c18 -14 18 -14 -6 -3 -31
14 -36 19 -24 19 6 0 19 -7 30 -16z m2404 -18 c0 -2 -8 -10 -17 -17 -16 -13
-17 -12 -4 4 13 16 21 21 21 13z m-4171 -83 c-59 -78 -83 -104 -49 -53 29 43
91 120 96 120 3 0 -19 -30 -47 -67z m4277 -51 c-4 -3 -13 1 -22 10 -14 14 -14
17 3 33 17 18 18 18 21 -9 2 -15 1 -31 -2 -34z m260 -72 c9 -30 16 -84 16
-120 -1 -72 -38 -230 -71 -300 -24 -53 -26 -47 -7 23 8 29 18 70 21 92 3 22
10 58 16 80 11 39 6 252 -6 290 -6 16 -5 17 4 5 6 -8 18 -40 27 -70z m-2176
45 c0 -2 -9 -9 -20 -15 -12 -6 -20 -7 -20 -1 0 5 8 12 18 14 9 3 18 5 20 6 1
0 2 -1 2 -4z m846 -357 c-9 -12 -16 -19 -16 -15 0 11 24 47 28 42 2 -2 -3 -14
-12 -27z m-1160 -199 c3 -6 -5 -3 -20 6 -14 10 -26 19 -26 22 0 7 39 -17 46
-28z m454 -63 c0 -2 -8 -10 -17 -17 -16 -13 -17 -12 -4 4 13 16 21 21 21 13z
m-37 -51 c-3 -9 -8 -14 -10 -11 -3 3 -2 9 2 15 9 16 15 13 8 -4z m-1058 -45
c3 -5 2 -10 -4 -10 -5 0 -13 5 -16 10 -3 6 -2 10 4 10 5 0 13 -4 16 -10z
m1625 -222 c0 -19 -2 -20 -10 -8 -13 19 -13 30 0 30 6 0 10 -10 10 -22z
m-1070 -38 c-6 -11 -13 -20 -16 -20 -2 0 0 9 6 20 6 11 13 20 16 20 2 0 0 -9
-6 -20z m2689 -317 c-1 -60 -9 -109 -24 -153 -23 -66 -86 -192 -111 -221 -8
-8 -14 -18 -14 -22 0 -12 -88 -142 -107 -158 -26 -21 -189 -121 -242 -149 -38
-19 -135 -53 -151 -52 -3 0 -12 -4 -21 -9 -9 -4 -20 -4 -26 2 -12 12 -44 19
-114 23 -31 2 -69 11 -85 21 -27 15 -28 16 -4 10 61 -14 150 -17 199 -6 49 10
196 68 289 114 92 45 263 262 320 405 35 90 82 241 82 267 0 8 3 15 6 15 3 0
4 -39 3 -87z m-3426 12 c-9 -19 -18 -33 -21 -31 -4 5 26 66 33 66 3 0 -3 -16
-12 -35z m927 -355 c0 -5 -8 -10 -17 -10 -15 0 -16 2 -3 10 19 12 20 12 20 0z
m-1982 -57 c4 -27 -25 -38 -33 -13 -4 11 -3 25 0 30 10 16 30 6 33 -17z m94
-105 c-7 -7 -12 -8 -12 -2 0 14 12 26 19 19 2 -3 -1 -11 -7 -17z m2473 -18 c3
-6 -1 -7 -9 -4 -18 7 -21 14 -7 14 6 0 13 -4 16 -10z m-2638 -181 c43 -52 175
-163 231 -195 51 -29 203 -94 218 -94 7 0 16 -5 20 -11 4 -7 -20 -9 -82 -5
-185 11 -245 34 -344 135 -83 84 -127 159 -136 231 l-6 55 31 -35 c16 -19 47
-56 68 -81z m498 -21 c-14 -29 -25 -59 -25 -66 0 -7 -4 -10 -10 -7 -5 3 -10
23 -10 43 0 30 6 41 33 60 17 12 33 22 34 22 1 0 -9 -24 -22 -52z m2925 -428
c12 -1 11 -3 -3 -11 -30 -18 -68 -6 -95 29 l-25 32 54 -25 c30 -14 61 -25 69
-25z m-363 -417 c5 -14 -33 -27 -48 -17 -9 5 -6 11 7 21 20 14 36 13 41 -4z
m-1062 -398 c-22 -8 -65 -13 -95 -13 -54 1 -54 1 25 13 104 16 119 16 70 0z"/>
</g>
</svg>
